<svg width="65" height="16" viewBox="0 0 65 16" fill="none" xmlns="http://www.w3.org/2000/svg">
<g clip-path="url(#clip0_16_16)">
<path fill-rule="evenodd" clip-rule="evenodd" d="M62.5955 8.57135C62.527 8.5329 62.4395 8.5521 62.397 8.6183C61.993 9.23555 61.297 9.6435 60.5045 9.6435C59.46 9.6435 58.58 8.9344 58.3195 7.9712H64.428C64.5025 7.9712 64.5665 7.91565 64.5755 7.8409C64.5925 7.68925 64.601 7.5355 64.601 7.3817C64.601 5.0537 62.6595 3.18065 60.308 3.28743C58.2085 3.38354 56.504 5.0879 56.408 7.18735C56.299 9.53885 58.1745 11.4803 60.5025 11.4803C61.9675 11.4803 63.253 10.7114 63.9775 9.5538C64.022 9.4812 63.9985 9.3872 63.926 9.3445L62.591 8.57135H62.5955ZM60.5065 5.1178C61.44 5.1178 62.243 5.68375 62.587 6.4911H58.4245C58.77 5.68375 59.571 5.1178 60.5045 5.1178H60.5065Z" fill="white"/>
<path fill-rule="evenodd" clip-rule="evenodd" d="M32.4639 3.30664C30.2042 3.30664 28.3696 5.13915 28.3696 7.4009C28.3696 9.6627 30.2021 11.4952 32.4639 11.4952C34.7257 11.4952 36.5582 9.6627 36.5582 7.4009C36.5582 5.13915 34.7257 3.30664 32.4639 3.30664ZM32.4639 9.65415C31.2187 9.65415 30.2085 8.64395 30.2085 7.3988C30.2085 6.15365 31.2187 5.1434 32.4639 5.1434C33.709 5.1434 34.7193 6.15365 34.7193 7.3988C34.7193 8.64395 33.709 9.65415 32.4639 9.65415Z" fill="white"/>
<path fill-rule="evenodd" clip-rule="evenodd" d="M27.133 3.41769H25.4949C25.4137 3.41769 25.3454 3.4839 25.3454 3.5672V3.76582V4.08619C25.0528 3.74874 24.5893 3.56079 24.4078 3.49672C23.9956 3.35789 23.5535 3.28528 23.0943 3.28528C20.8645 3.29168 19.0321 5.1028 19 7.33255C18.968 9.62855 20.8176 11.4973 23.1071 11.4973C23.5642 11.4973 24.0041 11.4226 24.4142 11.2837C24.6 11.2175 25.0571 11.0296 25.3475 10.6964V11.0168V11.0936C25.3475 11.7878 25.1062 12.3559 24.6491 12.7361C24.2519 13.065 23.6966 13.2465 23.0836 13.2465C22.193 13.2465 21.3387 12.8813 20.8368 12.3004C20.7813 12.2363 20.683 12.232 20.6211 12.2918L19.534 13.3512C19.4742 13.4088 19.4742 13.5028 19.5318 13.5626C20.4566 14.5087 21.6591 14.9914 23.1071 15.0021H23.5684C25.6145 15.0021 27.2719 13.3447 27.2719 11.2987V10.5768C27.2719 10.5768 27.2719 10.5661 27.2719 10.5597L27.2804 3.5672C27.2804 3.48604 27.2142 3.41769 27.1309 3.41769H27.133ZM25.3454 7.41585C25.3326 8.6418 24.3352 9.63065 23.1071 9.63065C21.879 9.63065 20.8688 8.629 20.8688 7.39235C20.8688 6.15575 21.8705 5.1541 23.1071 5.1541C24.3437 5.1541 25.3326 6.14295 25.3454 7.3689V7.41585Z" fill="white"/>
<path d="M45.8488 3.43054H44.2192C44.1367 3.43054 44.0697 3.49748 44.0697 3.58005V11.2176C44.0697 11.3002 44.1367 11.3671 44.2192 11.3671H45.8488C45.9314 11.3671 45.9983 11.3002 45.9983 11.2176V3.58005C45.9983 3.49748 45.9314 3.43054 45.8488 3.43054Z" fill="white"/>
<path d="M39.4371 11.352H37.7734C37.6922 11.352 37.6239 11.2858 37.6239 11.2025V3.5885C37.6239 3.50734 37.6901 3.43899 37.7734 3.43899H39.3005C39.3816 3.43899 39.45 3.5052 39.45 3.5885V4.49406L39.702 4.19078L39.7212 4.16943C40.2915 3.58422 41.0518 3.28735 41.983 3.28735C42.329 3.28735 42.6686 3.33434 43.0552 3.43472C43.1 3.4454 43.1257 3.49025 43.115 3.53296L42.7455 5.1177C42.7369 5.154 42.7027 5.1818 42.6643 5.1818C42.6579 5.1818 42.6515 5.1818 42.6451 5.17965C42.3012 5.09635 42.0364 5.06645 41.6648 5.06645C40.3235 5.06645 39.5867 5.98695 39.5867 7.6593V11.2025C39.5867 11.2837 39.5204 11.352 39.4371 11.352Z" fill="white"/>
<path fill-rule="evenodd" clip-rule="evenodd" d="M51.1775 11.5166C52.006 11.5208 52.777 11.2795 53.4245 10.8609V11.2154C53.4245 11.2965 53.4905 11.3649 53.574 11.3649H55.1905C55.272 11.3649 55.34 11.2987 55.34 11.2154V1.14951C55.34 1.06835 55.274 1 55.1905 1H53.5715C53.4905 1 53.422 1.06621 53.422 1.14951V1.6685V3.95805C52.7815 3.54371 52.017 3.30237 51.1965 3.30237C48.9093 3.30237 47.0576 5.1733 47.0896 7.46925C47.1217 9.69475 48.9477 11.5059 51.1755 11.5166H51.1775ZM51.199 5.17115C52.3545 5.17115 53.3045 6.0447 53.4245 7.1681V7.6508C53.3045 8.7742 52.3545 9.64775 51.199 9.64775C49.9622 9.64775 48.9606 8.64605 48.9606 7.40945C48.9606 6.17285 49.9622 5.17115 51.199 5.17115Z" fill="white"/>
<path fill-rule="evenodd" clip-rule="evenodd" d="M7.00105 0.258555C3.25833 0.42658 0.210731 3.38721 0.010888 7.05185C-0.152027 10.0593 1.57053 12.6903 4.12721 13.9132C5.0808 14.3684 6.2147 13.7962 6.39715 12.7732C6.52095 12.0841 6.16255 11.4013 5.52175 11.095C4.06856 10.3974 3.09324 8.8895 3.20836 7.1731C3.34304 5.1653 5.0026 3.53397 7.05315 3.39572C9.47735 3.23195 11.4975 5.11 11.4975 7.44745C11.4975 9.05325 10.546 10.44 9.16455 11.0993C8.5346 11.4013 8.1892 12.0798 8.31085 12.7562L8.3174 12.7902C8.49765 13.7963 9.612 14.3684 10.5483 13.9239C13.0028 12.7605 14.6972 10.2975 14.6972 7.44745C14.6972 3.35957 11.2172 0.0671352 7.00105 0.258555Z" fill="white"/>
<path fill-rule="evenodd" clip-rule="evenodd" d="M7.35505 9.97835C5.9279 9.97835 4.76794 8.8426 4.76794 7.44525C4.76794 6.04785 5.9279 4.91211 7.35505 4.91211C8.78215 4.91211 9.94215 6.04785 9.94215 7.44525C9.94215 8.8426 8.78215 9.97835 7.35505 9.97835Z" fill="white"/>
</g>
<defs>
<clipPath id="clip0_16_16">
<rect width="65" height="16" fill="white"/>
</clipPath>
</defs>
</svg>
